<svg xmlns="http://www.w3.org/2000/svg" width="980" height="520" viewBox="0 0 980 520" role="img">
  <rect width="980" height="520" fill="#ffffff"/>
  <text x="82" y="30" font-family="-apple-system, Segoe UI, sans-serif" font-size="21" font-weight="700" fill="#1a1f25">Mean Steering Delta by Model</text>
  <text x="82" y="52" font-family="-apple-system, Segoe UI, sans-serif" font-size="13" fill="#5c6773">9 个主模型 stage2b official rescore；正值表示 activation steering 提升 benchmark score。</text>
  <line x1="82" y1="428.0" x2="944" y2="428.0" stroke="#e7ebef"/>
  <text x="70" y="432.0" text-anchor="end" font-size="12" font-family="-apple-system, Segoe UI, sans-serif" fill="#5c6773">0.00</text>
  <line x1="82" y1="338.5" x2="944" y2="338.5" stroke="#e7ebef"/>
  <text x="70" y="342.5" text-anchor="end" font-size="12" font-family="-apple-system, Segoe UI, sans-serif" fill="#5c6773">0.06</text>
  <line x1="82" y1="249.0" x2="944" y2="249.0" stroke="#e7ebef"/>
  <text x="70" y="253.0" text-anchor="end" font-size="12" font-family="-apple-system, Segoe UI, sans-serif" fill="#5c6773">0.12</text>
  <line x1="82" y1="159.5" x2="944" y2="159.5" stroke="#e7ebef"/>
  <text x="70" y="163.5" text-anchor="end" font-size="12" font-family="-apple-system, Segoe UI, sans-serif" fill="#5c6773">0.18</text>
  <line x1="82" y1="70.0" x2="944" y2="70.0" stroke="#e7ebef"/>
  <text x="70" y="74.0" text-anchor="end" font-size="12" font-family="-apple-system, Segoe UI, sans-serif" fill="#5c6773">0.24</text>
  <line x1="82" y1="428" x2="944" y2="428" stroke="#1a1f25"/>
  <line x1="82" y1="70" x2="82" y2="428" stroke="#1a1f25"/>
  <text transform="translate(24,249.0) rotate(-90)" text-anchor="middle" font-family="-apple-system, Segoe UI, sans-serif" font-size="13" fill="#1a1f25">mean benchmark score delta</text>
  <rect x="117.9" y="113.0" width="24.0" height="315.0" rx="3" fill="#1a6fb5"/>
  <text x="129.9" y="450" text-anchor="middle" font-size="11" font-family="-apple-system, Segoe UI, sans-serif" fill="#1a1f25">Qwen0.6B</text>
  <rect x="213.7" y="120.9" width="24.0" height="307.1" rx="3" fill="#1a6fb5"/>
  <text x="225.7" y="450" text-anchor="middle" font-size="11" font-family="-apple-system, Segoe UI, sans-serif" fill="#1a1f25">Qwen1.7B</text>
  <rect x="309.4" y="342.4" width="24.0" height="85.6" rx="3" fill="#1a6fb5"/>
  <text x="321.4" y="450" text-anchor="middle" font-size="11" font-family="-apple-system, Segoe UI, sans-serif" fill="#1a1f25">Gemma2B</text>
  <rect x="405.2" y="260.6" width="24.0" height="167.4" rx="3" fill="#1a6fb5"/>
  <text x="417.2" y="450" text-anchor="middle" font-size="11" font-family="-apple-system, Segoe UI, sans-serif" fill="#1a1f25">Llama8B</text>
  <rect x="501.0" y="327.3" width="24.0" height="100.7" rx="3" fill="#1a6fb5"/>
  <text x="513.0" y="450" text-anchor="middle" font-size="11" font-family="-apple-system, Segoe UI, sans-serif" fill="#1a1f25">Gemma9B</text>
  <rect x="596.8" y="250.3" width="24.0" height="177.7" rx="3" fill="#1a6fb5"/>
  <text x="608.8" y="450" text-anchor="middle" font-size="11" font-family="-apple-system, Segoe UI, sans-serif" fill="#1a1f25">Qwen14B</text>
  <rect x="692.6" y="396.4" width="24.0" height="31.6" rx="3" fill="#1a6fb5"/>
  <text x="704.6" y="450" text-anchor="middle" font-size="11" font-family="-apple-system, Segoe UI, sans-serif" fill="#1a1f25">Gemma27B</text>
  <rect x="788.3" y="158.6" width="24.0" height="269.4" rx="3" fill="#1a6fb5"/>
  <text x="800.3" y="450" text-anchor="middle" font-size="11" font-family="-apple-system, Segoe UI, sans-serif" fill="#1a1f25">Qwen32B</text>
  <rect x="884.1" y="336.1" width="24.0" height="91.9" rx="3" fill="#1a6fb5"/>
  <text x="896.1" y="450" text-anchor="middle" font-size="11" font-family="-apple-system, Segoe UI, sans-serif" fill="#1a1f25">Llama70B</text>
  <rect x="82" y="472" width="12" height="12" rx="2" fill="#1a6fb5"/>
  <text x="100" y="482" font-size="12" font-family="-apple-system, Segoe UI, sans-serif" fill="#1a1f25">mean Δ</text>
</svg>
