<svg xmlns="http://www.w3.org/2000/svg" width="980" height="520" viewBox="0 0 980 520" role="img">
  <rect width="980" height="520" fill="#ffffff"/>
  <text x="82" y="30" font-family="-apple-system, Segoe UI, sans-serif" font-size="21" font-weight="700" fill="#1a1f25">Cross-Format A/E/F Control</text>
  <text x="82" y="52" font-family="-apple-system, Segoe UI, sans-serif" font-size="13" fill="#5c6773">F=gen contrast with correct vs false answer text；结果显示 A 的优势不是 E 空负样本 artifact。</text>
  <line x1="82" y1="428.0" x2="944" y2="428.0" stroke="#e7ebef"/>
  <text x="70" y="432.0" text-anchor="end" font-size="12" font-family="-apple-system, Segoe UI, sans-serif" fill="#5c6773">0.00</text>
  <line x1="82" y1="338.5" x2="944" y2="338.5" stroke="#e7ebef"/>
  <text x="70" y="342.5" text-anchor="end" font-size="12" font-family="-apple-system, Segoe UI, sans-serif" fill="#5c6773">0.06</text>
  <line x1="82" y1="249.0" x2="944" y2="249.0" stroke="#e7ebef"/>
  <text x="70" y="253.0" text-anchor="end" font-size="12" font-family="-apple-system, Segoe UI, sans-serif" fill="#5c6773">0.11</text>
  <line x1="82" y1="159.5" x2="944" y2="159.5" stroke="#e7ebef"/>
  <text x="70" y="163.5" text-anchor="end" font-size="12" font-family="-apple-system, Segoe UI, sans-serif" fill="#5c6773">0.17</text>
  <line x1="82" y1="70.0" x2="944" y2="70.0" stroke="#e7ebef"/>
  <text x="70" y="74.0" text-anchor="end" font-size="12" font-family="-apple-system, Segoe UI, sans-serif" fill="#5c6773">0.22</text>
  <line x1="82" y1="428" x2="944" y2="428" stroke="#1a1f25"/>
  <line x1="82" y1="70" x2="82" y2="428" stroke="#1a1f25"/>
  <text transform="translate(24,249.0) rotate(-90)" text-anchor="middle" font-family="-apple-system, Segoe UI, sans-serif" font-size="13" fill="#1a1f25">mean delta</text>
  <rect x="213.0" y="333.6" width="24.0" height="94.4" rx="3" fill="#1a6fb5"/>
  <rect x="242.0" y="470.3" width="24.0" height="-42.3" rx="3" fill="#5c6773"/>
  <rect x="271.0" y="444.3" width="24.0" height="-16.3" rx="3" fill="#b07c14"/>
  <rect x="300.0" y="406.8" width="24.0" height="21.2" rx="3" fill="#1a8c5e"/>
  <rect x="329.0" y="457.3" width="24.0" height="-29.3" rx="3" fill="#9ca3af"/>
  <rect x="358.0" y="449.2" width="24.0" height="-21.2" rx="3" fill="#6b4fa0"/>
  <text x="297.5" y="450" text-anchor="middle" font-size="11" font-family="-apple-system, Segoe UI, sans-serif" fill="#1a1f25">l8b</text>
  <rect x="644.0" y="87.9" width="24.0" height="340.1" rx="3" fill="#1a6fb5"/>
  <rect x="673.0" y="385.7" width="24.0" height="42.3" rx="3" fill="#5c6773"/>
  <rect x="702.0" y="353.1" width="24.0" height="74.9" rx="3" fill="#b07c14"/>
  <rect x="731.0" y="312.5" width="24.0" height="115.5" rx="3" fill="#1a8c5e"/>
  <rect x="760.0" y="403.6" width="24.0" height="24.4" rx="3" fill="#9ca3af"/>
  <rect x="789.0" y="405.2" width="24.0" height="22.8" rx="3" fill="#6b4fa0"/>
  <text x="728.5" y="450" text-anchor="middle" font-size="11" font-family="-apple-system, Segoe UI, sans-serif" fill="#1a1f25">q0.6b</text>
  <rect x="82" y="472" width="12" height="12" rx="2" fill="#1a6fb5"/>
  <text x="100" y="482" font-size="12" font-family="-apple-system, Segoe UI, sans-serif" fill="#1a1f25">A MC eval</text>
  <rect x="232" y="472" width="12" height="12" rx="2" fill="#5c6773"/>
  <text x="250" y="482" font-size="12" font-family="-apple-system, Segoe UI, sans-serif" fill="#1a1f25">E MC eval</text>
  <rect x="382" y="472" width="12" height="12" rx="2" fill="#b07c14"/>
  <text x="400" y="482" font-size="12" font-family="-apple-system, Segoe UI, sans-serif" fill="#1a1f25">F MC eval</text>
  <rect x="532" y="472" width="12" height="12" rx="2" fill="#1a8c5e"/>
  <text x="550" y="482" font-size="12" font-family="-apple-system, Segoe UI, sans-serif" fill="#1a1f25">A Gen eval</text>
  <rect x="682" y="472" width="12" height="12" rx="2" fill="#9ca3af"/>
  <text x="700" y="482" font-size="12" font-family="-apple-system, Segoe UI, sans-serif" fill="#1a1f25">E Gen eval</text>
  <rect x="832" y="472" width="12" height="12" rx="2" fill="#6b4fa0"/>
  <text x="850" y="482" font-size="12" font-family="-apple-system, Segoe UI, sans-serif" fill="#1a1f25">F Gen eval</text>
</svg>
